<svg xmlns="http://www.w3.org/2000/svg" width="512" height="512" viewBox="0 0 512 512"><defs><linearGradient id="bg" x1="0" y1="0" x2="1" y2="1"><stop offset="0" stop-color="#fffaf0"/><stop offset="1" stop-color="#f6ead0"/></linearGradient><linearGradient id="gold" x1="0" y1="0" x2="1" y2="1"><stop offset="0" stop-color="#ffd36a"/><stop offset="1" stop-color="#e9901c"/></linearGradient></defs><rect x="8" y="8" width="496" height="496" rx="92" fill="url(#bg)" stroke="url(#gold)" stroke-width="12"/><g fill="none" stroke="#df8b21" stroke-width="5" stroke-linecap="round"><path d="M70 190c45 0 45-34 78-34"/><path d="M442 190c-45 0-45-34-78-34"/><path d="M86 175l-16 15m32-25-9-18m324 28 16 15m-32-25 9-18"/></g><path d="M151 166Q256 104 361 166" fill="none" stroke="#e87518" stroke-width="18" stroke-linecap="round"/><path d="M181 183V130l75 47 75-47v53" fill="#07552c"/><path d="M256 177v55" stroke="#07552c" stroke-width="8"/><path d="M181 184q75 42 150 0" fill="none" stroke="#07552c" stroke-width="8"/><path d="M256 105c-18-25 2-46 0-61 25 26 29 48 0 61z" fill="#f25b19"/><path d="M177 237q79 37 158 0l-25 34q-54 24-108 0z" fill="#07552c"/><text x="256" y="329" text-anchor="middle" font-family="Georgia,serif" font-size="58" font-weight="700" letter-spacing="2" fill="#07552c">GURUKULAM</text><text x="256" y="389" text-anchor="middle" font-family="Georgia,serif" font-size="54" font-weight="700" fill="#07552c">A<tspan fill="#e87518">I</tspan></text><g stroke="#e87518" stroke-width="4"><path d="M108 375h74M330 375h74"/></g><text x="256" y="431" text-anchor="middle" font-family="Georgia,serif" font-size="20" font-weight="700" fill="#e87518">Learn • Understand • Grow</text></svg>