<svg xmlns="http://www.w3.org/2000/svg" viewBox="0 0 256 256"><defs><linearGradient id="s" x1="0" y1="0" x2="0" y2="1"><stop offset="0" stop-color="#fff8e8"/><stop offset="1" stop-color="#f2e5c9"/></linearGradient></defs><rect width="256" height="256" rx="42" fill="url(#s)"/><path d="M57 124c0-55 30-84 71-84s71 29 71 84v35H57z" fill="#173d34"/><ellipse cx="128" cy="126" rx="61" ry="70" fill="#c98258"/><path d="M69 113c3-47 29-70 59-70 36 0 59 27 60 70-16-19-35-28-58-28-23 0-43 9-61 28z" fill="#2b1b18"/><ellipse cx="105" cy="128" rx="9" ry="13" fill="#fff"/><ellipse cx="151" cy="128" rx="9" ry="13" fill="#fff"/><circle cx="106" cy="130" r="5" fill="#2b1b18"/><circle cx="152" cy="130" r="5" fill="#2b1b18"/><path d="M119 151q9 7 18 0" fill="none" stroke="#7b3d32" stroke-width="4" stroke-linecap="round"/><path d="M79 194q49-30 98 0v62H79z" fill="#2f8b62"/><path d="M98 195l30 25 30-25" fill="none" stroke="#e5c46b" stroke-width="5"/><circle cx="128" cy="218" r="5" fill="#f4c84e"/></svg>